<?xml version="1.0" encoding="utf-8"?>
<!-- Generator: Adobe Illustrator 27.1.1, SVG Export Plug-In . SVG Version: 6.00 Build 0)  -->
<svg version="1.1" id="Layer_1" xmlns="http://www.w3.org/2000/svg" xmlns:xlink="http://www.w3.org/1999/xlink" x="0px" y="0px"
	 viewBox="0 0 316.05 328.99" style="enable-background:new 0 0 316.05 328.99;" xml:space="preserve">
<style type="text/css">
	.st0{fill:#BFB366;}
	.st1{fill:#272660;}
	.st2{fill:#3597AB;}
	.st3{fill:#11486A;}
	.st4{fill:#595A5C;}
</style>
<g>
	<g>
		<path class="st0" d="M215.09,106.36l-6.01,6.88l0.09,0.09c4.5,4.49,8.4,9.61,11.6,15.18l-9.57,5.54
			c-2.61-4.55-5.78-8.73-9.42-12.46c-0.14-0.14-0.29-0.3-0.43-0.44c-2.37-2.38-4.95-4.54-7.68-6.49c-1.43-1.02-2.9-1.99-4.41-2.89
			l5.9-9.37c2.01,1.21,3.96,2.5,5.83,3.89l6-6.86c-13.48-10.05-30.16-15.98-48.27-15.98c-15.08,0-29.18,4.13-41.25,11.31l-5.95-9.34
			c13.81-8.28,29.96-13.04,47.2-13.03c20.87-0.01,40.14,6.97,55.58,18.69c2.83,2.16,5.53,4.48,8.1,6.95
			c0.45,0.43,0.92,0.85,1.35,1.29c9.36,9.35,16.71,20.72,21.35,33.4L234.86,137c-4.07-11.34-10.59-21.5-18.95-29.86
			C215.64,106.88,215.36,106.62,215.09,106.36z"/>
		<path class="st1" d="M97.9,174.41l-10.92,1.79c0.73,4.41,1.85,8.7,3.34,12.8l10.3-4.06C99.42,181.56,98.5,178.04,97.9,174.41z"/>
		<path class="st2" d="M240.98,205.43c-1.59,3.19-3.37,6.27-5.32,9.25c-3.47,5.3-7.46,10.23-11.93,14.69
			C207.11,246,184.09,256.3,158.7,256.3c-16.98,0-32.92-4.64-46.58-12.68l5.47-9.61c12.05,7.13,26.09,11.23,41.11,11.23
			c22.36,0,42.55-9.04,57.2-23.69c3.78-3.78,7.18-7.94,10.16-12.41l-7.98-4.6c-2.62,3.89-5.61,7.52-8.92,10.83
			c-7.29,7.3-16.16,13.04-26.04,16.7l-4.2-10.26c8.51-3.08,16.14-7.98,22.43-14.26c2.62-2.63,5-5.5,7.13-8.56
			c2.01-2.92,3.77-6.03,5.26-9.28c2.73-5.97,4.54-12.45,5.21-19.27c0.2-1.99,0.3-4.03,0.3-6.07c0-1.55-0.08-3.08-0.19-4.59h11.1
			c0.09,1.52,0.15,3.04,0.15,4.59c0,2.05-0.1,4.07-0.28,6.07c-0.73,8.82-3.04,17.19-6.67,24.83l8.03,4.64L240.98,205.43z"/>
		<path class="st3" d="M158.02,264.11c-24.6,0-47.07-8.9-64.45-23.66l-7.09,8.5c19.29,16.35,44.28,26.23,71.53,26.23
			c6.5,0,12.87-0.57,19.06-1.64l-1.93-10.89C169.59,263.6,163.87,264.11,158.02,264.11z"/>
		<path class="st3" d="M59.92,181.87l-10.88,2.03c2.24,12.66,6.64,24.58,12.79,35.37l9.56-5.58
			C65.87,203.99,61.93,193.27,59.92,181.87z"/>
		<path class="st0" d="M207.95,78.28l5.48-9.61c-5.28-3.06-10.84-5.69-16.63-7.86l-4,10.31C198.08,73.09,203.14,75.48,207.95,78.28z
			"/>
		<path class="st0" d="M228.46,94.05c6.33,6.33,11.81,13.51,16.25,21.35l9.17-6.26c-4.86-8.4-10.79-16.1-17.6-22.91
			c-2.03-2.03-4.14-3.97-6.32-5.84l-7.25,8.36C224.7,90.44,226.62,92.21,228.46,94.05z"/>
		<path class="st0" d="M175.66,66.43l1.82-10.91c-6.28-1.11-12.73-1.7-19.33-1.7v11.06C164.13,64.89,169.98,65.42,175.66,66.43z"/>
		<path class="st2" d="M77.81,164.34c0,19.23,6.7,36.84,17.9,50.73l-8.41,7.2c-12.85-15.81-20.56-35.99-20.56-57.93
			c0-3.55,0.22-7.06,0.62-10.51l-8.28-0.98c-0.45,3.82-0.69,7.7-0.69,11.64v0.08l-11.06-0.17c0-4.35,0.27-8.64,0.76-12.87
			c0.41-3.57,1-7.08,1.75-10.54c4.57-21.12,15.17-40.03,29.91-54.76c15.6-15.61,35.88-26.59,58.55-30.67l2.21,10.84
			c-20.49,3.63-38.81,13.52-52.94,27.65c-13.03,13.04-22.47,29.65-26.7,48.26l8.31,1c2-8.52,5.17-16.59,9.35-24.01l9.79,5.17
			c-3.55,6.25-6.31,13.01-8.09,20.16c-0.86,3.43-1.49,6.94-1.9,10.52C78.01,158.17,77.81,161.24,77.81,164.34z"/>
		<path class="st3" d="M268.7,164.49c0,1.99-0.06,3.97-0.17,5.93c-0.4,7.59-1.56,14.98-3.42,22.1c-0.91,3.46-1.97,6.86-3.2,10.18
			c-5.59,15.2-14.42,28.84-25.64,40.06c-11.17,11.17-24.75,19.97-39.88,25.57l-4.13-10.27c13.72-5.02,26.03-12.99,36.18-23.12
			c10.07-10.08,17.99-22.29,23.02-35.9l-6.68-2.36L234.36,193c1.25-3.31,2.29-6.72,3.11-10.21c0.93-4.02,1.57-8.14,1.88-12.37
			c0.15-2,0.25-4.03,0.25-6.07c0-1.54-0.06-3.08-0.14-4.59h11.09c0.08,1.53,0.12,3.05,0.12,4.59c0,2.05-0.09,4.07-0.22,6.07
			c-0.37,5.5-1.19,10.86-2.48,16.07l6.67,2.35c1.49-5.94,2.45-12.09,2.81-18.41c0.12-1.96,0.19-3.94,0.19-5.93
			c0-1.58-0.04-3.16-0.12-4.74h11.08C268.66,161.32,268.7,162.91,268.7,164.49z"/>
	</g>
	<path class="st4" d="M206.37,187.46h-12.69h-2.41c-2.83,4.02-6.37,7.5-10.45,10.26c-6.43,4.34-14.14,6.87-22.5,6.87
		c-5.58,0-10.85-1.13-15.67-3.16c-7.21-3.05-13.37-8.16-17.72-14.59c-4.34-6.43-6.87-14.14-6.87-22.5c0-5.58,1.13-10.85,3.16-15.67
		c3.05-7.21,8.16-13.37,14.59-17.72c6.43-4.34,14.14-6.87,22.5-6.87c5.58,0,10.85,1.13,15.67,3.16c6.09,2.57,11.42,6.62,15.54,11.68
		h2.5h13.14h1.65c-4.23-8.06-10.39-14.92-17.88-19.99c-8.73-5.9-19.3-9.36-30.62-9.36c-7.54,0-14.76,1.53-21.32,4.31
		c-3.63,1.54-7.06,3.45-10.24,5.7l-4.07-4.97c10-7.15,22.22-11.35,35.46-11.35V92.2c-15.88-0.01-30.57,5.14-42.49,13.84
		c-2.88,2.1-5.6,4.4-8.13,6.9c-0.13,0.13-0.28,0.25-0.4,0.39C94.08,126.36,85.99,144.44,86,164.34h11.06
		c0-16.7,6.67-31.77,17.51-42.81l4.11,5.02c-2.11,2.22-4.05,4.61-5.77,7.15c-5.9,8.73-9.36,19.3-9.36,30.62
		c0,7.54,1.53,14.76,4.31,21.32c2.64,6.24,6.4,11.87,11.02,16.67l-4.26,4.87l-7.3,8.36c2.52,2.5,5.23,4.81,8.11,6.93
		c8.71,6.42,18.93,10.91,30.03,12.88l1.67-10.93c-8.97-1.64-17.25-5.22-24.39-10.31l4.26-4.87c0.23,0.16,0.46,0.33,0.7,0.49
		c8.73,5.9,19.3,9.36,30.62,9.36c7.54,0,14.76-1.53,21.32-4.31c9.84-4.16,18.18-11.09,24.08-19.83c1.6-2.37,3.01-4.88,4.24-7.49
		H206.37z"/>
</g>
</svg>
